<?xml version="1.0" encoding="iso-8859-1"?>
<!-- Generator: Adobe Illustrator 19.0.0, SVG Export Plug-In . SVG Version: 6.00 Build 0)  -->
<svg version="1.1" id="Layer_1" xmlns="http://www.w3.org/2000/svg" xmlns:xlink="http://www.w3.org/1999/xlink" x="0px" y="0px"
	 viewBox="0 0 510.67 510.67" style="enable-background:new 0 0 510.67 510.67;" xml:space="preserve">
<g>
	<path style="fill:#FFD46A;" d="M86.303,385.807c4.744,4.745,4.744,12.438,0,17.184l-33.854,33.854h52.086l41.082-41.082
		c4.746-4.744,12.438-4.744,17.184,0c4.744,4.745,4.744,12.438,0,17.184l-23.898,23.898h358.433V145.44H266.3H35.266v186.672
		l23.774-23.775c4.746-4.746,12.438-4.745,17.183-0.001c4.745,4.745,4.745,12.438,0.001,17.183l-40.958,40.959v53.182l33.854-33.854
		C73.865,381.063,81.557,381.063,86.303,385.807z"/>
	<polygon style="fill:#4CC7BB;" points="497.335,121.14 497.335,93.896 324.11,93.896 296.167,121.14 	"/>
	<g>
		<path d="M12.15,451.109c-6.612,0-12.15-5.495-12.15-12.15V123.255c0-6.71,5.439-12.15,12.15-12.15h238.242l49.329-48.093
			c2.269-2.213,5.313-3.451,8.482-3.451H498.52c6.71,0,12.15,5.44,12.15,12.15v367.248c0,6.71-5.439,12.15-12.15,12.15H98.625
			c-0.015,0-0.029,0-0.044,0H12.182C12.172,451.109,12.161,451.109,12.15,451.109z M127.936,426.809H486.37V135.405H24.3v186.673
			l23.776-23.776c4.745-4.744,12.438-4.744,17.183,0c4.745,4.745,4.745,12.438,0,17.184L24.3,356.443v53.183l33.854-33.854
			c4.745-4.744,12.438-4.744,17.183,0c4.745,4.745,4.745,12.438,0,17.184L41.483,426.81h52.088l41.082-41.081
			c4.745-4.746,12.438-4.745,17.183-0.001c4.745,4.745,4.745,12.438,0,17.184L127.936,426.809z M285.202,111.104H486.37V83.861
			H313.146L285.202,111.104z"/>
	</g>
</g>
</svg>
