<?xml version="1.0" encoding="iso-8859-1"?>
<!-- Generator: Adobe Illustrator 19.0.0, SVG Export Plug-In . SVG Version: 6.00 Build 0)  -->
<svg version="1.1" id="Layer_1" xmlns="http://www.w3.org/2000/svg" xmlns:xlink="http://www.w3.org/1999/xlink" x="0px" y="0px"
	 viewBox="0 0 510.67 510.67" style="enable-background:new 0 0 510.67 510.67;" xml:space="preserve">
<g>
	<path style="fill:#FFD46A;" d="M332.491,80.858c0,6.71-5.44,12.15-12.15,12.15H210.715c-6.71,0-12.15-5.439-12.15-12.15V63.671
		H113.24v320.164l38.861-38.862c4.746-4.745,12.438-4.745,17.183,0s4.745,12.438,0.001,17.183l-56.045,56.045v60.995l53.896-53.897
		c4.746-4.745,12.438-4.745,17.184,0c4.744,4.745,4.744,12.438,0,17.183l-53.921,53.922h59.362l56.253-56.253
		c4.746-4.745,12.438-4.745,17.184,0c4.744,4.745,4.744,12.438,0,17.183l-39.071,39.071h195.235V63.671h-86.87L332.491,80.858
		L332.491,80.858z M385.963,270.572H146.638c-6.71,0-12.15-5.439-12.15-12.15s5.44-12.15,12.15-12.15h239.325
		c6.71,0,12.15,5.439,12.15,12.15S392.673,270.572,385.963,270.572z M385.963,211.126H146.638c-6.71,0-12.15-5.439-12.15-12.15
		s5.44-12.15,12.15-12.15h239.325c6.71,0,12.15,5.439,12.15,12.15S392.673,211.126,385.963,211.126z M398.113,139.532
		c0,6.71-5.44,12.15-12.15,12.15H146.638c-6.71,0-12.15-5.439-12.15-12.15s5.44-12.15,12.15-12.15h239.325
		C392.673,127.382,398.113,132.821,398.113,139.532z"/>
	<path style="fill:#4CC7BB;" d="M222.865,34.335v17.148c0,0.013,0.002,0.025,0.002,0.039s-0.002,0.026-0.002,0.039v17.148h85.325
		V51.522V34.335H222.865z"/>
	<g>
		<path d="M420.546,510.67H90.124c-6.71,0-12.15-5.439-12.15-12.15V41.486c0-6.71,5.44-12.15,12.15-12.15H187.6V12.15
			C187.6,5.44,193.04,0,199.75,0h109.626c6.71,0,12.15,5.439,12.15,12.15v17.187h99.02c6.71,0,12.15,5.439,12.15,12.15V498.52
			C432.696,505.23,427.256,510.67,420.546,510.67z M213.161,486.37h195.234V53.636h-86.869v17.187c0,6.71-5.44,12.15-12.15,12.15
			H199.75c-6.71,0-12.15-5.439-12.15-12.15V53.636h-85.325v320.165l38.862-38.862c4.744-4.744,12.437-4.745,17.183,0
			c4.744,4.745,4.744,12.438,0,17.183l-56.045,56.044v60.997l53.897-53.897c4.744-4.745,12.437-4.745,17.183,0
			c4.744,4.745,4.744,12.438,0,17.183l-53.923,53.922h59.364l56.253-56.253c4.746-4.745,12.438-4.745,17.184,0
			c4.744,4.745,4.744,12.438,0,17.183L213.161,486.37z M211.9,58.673h85.325V24.3H211.9v16.964c0.001,0.074,0.002,0.148,0.002,0.223
			s-0.001,0.148-0.002,0.223V58.673z M374.997,260.537H135.673c-6.71,0-12.15-5.439-12.15-12.15s5.44-12.15,12.15-12.15h239.324
			c6.71,0,12.15,5.439,12.15,12.15S381.707,260.537,374.997,260.537z M374.997,201.091H135.673c-6.71,0-12.15-5.439-12.15-12.15
			s5.44-12.15,12.15-12.15h239.324c6.71,0,12.15,5.439,12.15,12.15S381.707,201.091,374.997,201.091z M374.997,141.646H135.673
			c-6.71,0-12.15-5.439-12.15-12.15s5.44-12.15,12.15-12.15h239.324c6.71,0,12.15,5.439,12.15,12.15
			S381.707,141.646,374.997,141.646z"/>
	</g>
</g>
</svg>
